
<svg xmlns="http://www.w3.org/2000/svg" version="1.1" xmlns:xlink="http://www.w3.org/1999/xlink" preserveAspectRatio="none" x="0px" y="0px" width="1920px" height="1080px" viewBox="0 0 1920 1080">
<defs>
<g id="Layer0_0_FILL">
<path fill="#202020" stroke="none" d="
M 1035.35 306.3
Q 1035.35 296.45 1027.7 296.45
L 898.25 296.45
Q 890.6 296.45 890.6 306.3
L 890.6 467.35 729.6 467.35
Q 719.75 467.35 719.75 475
L 719.75 604.45
Q 719.75 612.1 729.6 612.1
L 890.6 612.1 890.6 773.1
Q 890.6 782.95 898.25 782.95
L 1027.7 782.95
Q 1035.35 782.95 1035.35 773.1
L 1035.35 612.1 1196.4 612.1
Q 1206.25 612.1 1206.25 604.45
L 1206.25 475
Q 1206.25 467.35 1196.4 467.35
L 1035.35 467.35 1035.35 306.3
M 859.95 533.45
Q 862.25 533.45 863.85 535.05 865.45 536.65 865.45 538.95 865.45 541.25 863.85 542.85 862.25 544.45 859.95 544.45
L 757.95 544.45
Q 755.65 544.45 754.05 542.85 752.45 541.25 752.45 538.95 752.45 536.65 754.05 535.05 755.65 533.45 757.95 533.45
L 859.95 533.45
M 1168.9 533.45
Q 1171.2 533.45 1172.8 535.05 1174.4 536.65 1174.4 538.95 1174.4 541.25 1172.8 542.85 1171.2 544.45 1168.9 544.45
L 1066.9 544.45
Q 1064.6 544.45 1063 542.85 1061.4 541.25 1061.4 538.95 1061.4 536.65 1063 535.05 1064.6 533.45 1066.9 533.45
L 1168.9 533.45
M 957.4 333.95
Q 957.4 331.65 959 330.05 960.6 328.45 962.9 328.45 965.2 328.45 966.8 330.05 968.4 331.65 968.4 333.95
L 968.4 435.95
Q 968.4 438.25 966.8 439.85 965.2 441.45 962.9 441.45 960.6 441.45 959 439.85 957.4 438.25 957.4 435.95
L 957.4 333.95
M 957.4 642.9
Q 957.4 640.6 959 639 960.6 637.4 962.9 637.4 965.2 637.4 966.8 639 968.4 640.6 968.4 642.9
L 968.4 744.9
Q 968.4 747.2 966.8 748.8 965.2 750.4 962.9 750.4 960.6 750.4 959 748.8 957.4 747.2 957.4 744.9
L 957.4 642.9 Z"/>

<path fill="#404040" stroke="none" d="
M 959 639
Q 957.4 640.6 957.4 642.9
L 957.4 744.9
Q 957.4 747.2 959 748.8 960.6 750.4 962.9 750.4 965.2 750.4 966.8 748.8 968.4 747.2 968.4 744.9
L 968.4 642.9
Q 968.4 640.6 966.8 639 965.2 637.4 962.9 637.4 960.6 637.4 959 639
M 959 330.05
Q 957.4 331.65 957.4 333.95
L 957.4 435.95
Q 957.4 438.25 959 439.85 960.6 441.45 962.9 441.45 965.2 441.45 966.8 439.85 968.4 438.25 968.4 435.95
L 968.4 333.95
Q 968.4 331.65 966.8 330.05 965.2 328.45 962.9 328.45 960.6 328.45 959 330.05
M 1172.8 535.05
Q 1171.2 533.45 1168.9 533.45
L 1066.9 533.45
Q 1064.6 533.45 1063 535.05 1061.4 536.65 1061.4 538.95 1061.4 541.25 1063 542.85 1064.6 544.45 1066.9 544.45
L 1168.9 544.45
Q 1171.2 544.45 1172.8 542.85 1174.4 541.25 1174.4 538.95 1174.4 536.65 1172.8 535.05
M 863.85 535.05
Q 862.25 533.45 859.95 533.45
L 757.95 533.45
Q 755.65 533.45 754.05 535.05 752.45 536.65 752.45 538.95 752.45 541.25 754.05 542.85 755.65 544.45 757.95 544.45
L 859.95 544.45
Q 862.25 544.45 863.85 542.85 865.45 541.25 865.45 538.95 865.45 536.65 863.85 535.05 Z"/>
</g>

<path id="Layer0_0_1_STROKES" stroke="#404040" stroke-width="7" stroke-linejoin="round" stroke-linecap="round" fill="none" d="
M 957.4 435.95
L 957.4 333.95
Q 957.4 331.65 959 330.05 960.6 328.45 962.9 328.45 965.2 328.45 966.8 330.05 968.4 331.65 968.4 333.95
L 968.4 435.95
Q 968.4 438.25 966.8 439.85 965.2 441.45 962.9 441.45 960.6 441.45 959 439.85 957.4 438.25 957.4 435.95 Z
M 757.95 533.45
L 859.95 533.45
Q 862.25 533.45 863.85 535.05 865.45 536.65 865.45 538.95 865.45 541.25 863.85 542.85 862.25 544.45 859.95 544.45
L 757.95 544.45
Q 755.65 544.45 754.05 542.85 752.45 541.25 752.45 538.95 752.45 536.65 754.05 535.05 755.65 533.45 757.95 533.45 Z
M 957.4 744.9
L 957.4 642.9
Q 957.4 640.6 959 639 960.6 637.4 962.9 637.4 965.2 637.4 966.8 639 968.4 640.6 968.4 642.9
L 968.4 744.9
Q 968.4 747.2 966.8 748.8 965.2 750.4 962.9 750.4 960.6 750.4 959 748.8 957.4 747.2 957.4 744.9 Z
M 1066.9 533.45
L 1168.9 533.45
Q 1171.2 533.45 1172.8 535.05 1174.4 536.65 1174.4 538.95 1174.4 541.25 1172.8 542.85 1171.2 544.45 1168.9 544.45
L 1066.9 544.45
Q 1064.6 544.45 1063 542.85 1061.4 541.25 1061.4 538.95 1061.4 536.65 1063 535.05 1064.6 533.45 1066.9 533.45 Z"/>

<path id="Layer0_0_2_STROKES" stroke="#000000" stroke-width="6" stroke-linejoin="round" stroke-linecap="round" fill="none" d="
M 729.6 467.35
L 890.6 467.35 890.6 306.3
Q 890.6 296.45 898.25 296.45
L 1027.7 296.45
Q 1035.35 296.45 1035.35 306.3
L 1035.35 467.35 1196.4 467.35
Q 1206.25 467.35 1206.25 475
L 1206.25 604.45
Q 1206.25 612.1 1196.4 612.1
L 1035.35 612.1 1035.35 773.1
Q 1035.35 782.95 1027.7 782.95
L 898.25 782.95
Q 890.6 782.95 890.6 773.1
L 890.6 612.1 729.6 612.1
Q 719.75 612.1 719.75 604.45
L 719.75 475
Q 719.75 467.35 729.6 467.35 Z"/>
</defs>

<g transform="matrix( 1, 0, 0, 1, 0,0) ">
<use xlink:href="#Layer0_0_FILL"/>

<use xlink:href="#Layer0_0_1_STROKES"/>

<use xlink:href="#Layer0_0_2_STROKES"/>
</g>
</svg>
