<svg xmlns="http://www.w3.org/2000/svg" xmlns:xlink="http://www.w3.org/1999/xlink" preserveAspectRatio="xMidYMid meet" width="640" height="640" xmlns:v="https://vecta.io/nano"><defs><path d="M404.86 5.03l.42.05.42.06.42.07.8.2.4.13.38.13.4.16.37.16.36.18.36.2.35.2.34.22.33.24.32.24.3.26.3.27.3.28.28.3.27.3.26.3.24.32.24.33.22.34.2.35.2.36.18.36.16.37.16.4.13.38.13.4.2.8.07.42.06.42.05.42.02.43v.43 210l211.28.08.42.06.42.07.8.2.4.13.38.13.4.16.37.16.36.18.36.2.35.2.34.22.33.24.32.24.3.26.3.27.3.28.28.3.27.3.26.3.24.32.24.33.22.34.2.35.2.36.18.36.16.37.16.4.13.38.13.4.2.8.07.42.06.42.05.42.02.43v.43l-.08 169.28-.06.42-.07.42-.2.8-.13.4-.13.38-.16.4-.16.37-.18.36-.2.36-.2.35-.22.34-.24.33-.24.32-.26.3-.27.3-.28.3-.3.28-.3.27-.3.26-.32.24-.33.24-.34.22-.35.2-.36.2-.36.18-.37.16-.4.16-.38.13-.4.13-.8.2-.42.07-.42.06-.42.05-.43.02h-.43-210l-.14 211.7-.07.42-.2.8-.13.4-.13.38-.16.4-.16.37-.18.36-.2.36-.2.35-.22.34-.24.33-.24.32-.26.3-.27.3-.28.3-.3.28-.3.27-.3.26-.32.24-.33.24-.34.22-.35.2-.36.2-.36.18-.37.16-.4.16-.38.13-.4.13-.8.2-.42.07-.42.06-.42.05-.43.02H404 236h-.43l-.43-.02-.42-.05-.42-.06-.42-.07-.8-.2-.4-.13-.38-.13-.4-.16-.37-.16-.36-.18-.36-.2-.35-.2-.34-.22-.33-.24-.32-.24-.3-.26-.3-.27-.3-.28-.28-.3-.27-.3-.26-.3-.24-.32-.24-.33-.22-.34-.2-.35-.2-.36-.18-.36-.16-.37-.16-.4-.13-.38-.13-.4-.2-.8-.07-.42-.06-.42-.05-.42-.02-.43v-.43-210h-210-.43l-.43-.02-.42-.05-.42-.06-.42-.07-.8-.2-.4-.13-.38-.13-.4-.16-.37-.16-.36-.18-.36-.2-.35-.2-.34-.22-.33-.24-.32-.24-.3-.26-.3-.27-.3-.28-.28-.3-.27-.3-.26-.3-.24-.32-.24-.33-.22-.34-.2-.35-.2-.36-.18-.36-.16-.37-.16-.4-.13-.38-.13-.4-.2-.8-.07-.42-.06-.42-.05-.42-.02-.43V404l.03-168.86.05-.42.06-.42.07-.42.2-.8.13-.4.13-.38.16-.4.16-.37.18-.36.2-.36.2-.35.22-.34.24-.33.24-.32.26-.3.27-.3.28-.3.3-.28.3-.27.3-.26.32-.24.33-.24.34-.22.35-.2.36-.2.36-.18.37-.16.4-.16.38-.13.4-.13.8-.2.42-.07.42-.06.42-.05.43-.02h.43 210l.03-210.86.05-.42.06-.42.07-.42.2-.8.13-.4.13-.38.16-.4.16-.37.18-.36.2-.36.2-.35.22-.34.24-.33.24-.32.26-.3.27-.3.28-.3.3-.28.3-.27.3-.26.32-.24.33-.24.34-.22.35-.2.36-.2.36-.18.37-.16.4-.16.38-.13.4-.13.8-.2.42-.07.42-.06.42-.05.43-.02h.43l168.86.03z" id="A"/><path d="M201.24 308.68a6.95 6.95 0 0 1 6.96 6.95v8.74a6.95 6.95 0 0 1-6.96 6.95H33.3a6.95 6.95 0 0 1-6.95-6.95v-8.74a6.95 6.95 0 0 1 6.95-6.95h167.94z" id="B"/><path d="M602.54 308.68a6.95 6.95 0 0 1 6.96 6.95v8.74a6.95 6.95 0 0 1-6.96 6.95H434.6a6.95 6.95 0 0 1-6.95-6.95v-8.74a6.95 6.95 0 0 1 6.95-6.95h167.94z" id="C"/><path d="M331.07 605.05a6.96 6.96 0 0 1-6.98 6.94l-8.73-.03a6.96 6.96 0 0 1-6.94-6.97l.5-167.94c.01-3.84 3.14-6.95 6.98-6.94l8.73.03a6.96 6.96 0 0 1 6.94 6.98l-.5 167.93z" id="D"/><path d="M331.07 206.06a6.96 6.96 0 0 1-6.98 6.94l-8.73-.03a6.96 6.96 0 0 1-6.94-6.97l.5-167.94a6.96 6.96 0 0 1 6.98-6.94l8.73.03a6.96 6.96 0 0 1 6.94 6.98l-.5 167.93z" id="E"/></defs><filter id="F" x="-4" y="-4" width="649" height="649" filterUnits="userSpaceOnUse" primitiveUnits="userSpaceOnUse"><feFlood/><feComposite in2="SourceAlpha" operator="in"/><feGaussianBlur stdDeviation="1"/><feOffset dx="1" dy="1" result="A"/><feFlood flood-color="#000" flood-opacity=".5"/><feComposite in2="A" operator="in"/><feMorphology operator="dilate" radius="1"/><feComposite in2="SourceAlpha" operator="out"/></filter><use xlink:href="#J" fill="#fff" filter="url(#F)" href="#A"/><use xlink:href="#A" fill="#fff"/><use xlink:href="#A" fill-opacity="0" stroke="#000"/><filter id="G" x="-3" y="-3" width="646" height="646" filterUnits="userSpaceOnUse" primitiveUnits="userSpaceOnUse"><feFlood/><feComposite in2="SourceAlpha" operator="out"/><feGaussianBlur stdDeviation="1"/><feOffset result="A"/><feFlood flood-color="#fff" flood-opacity=".8"/><feComposite in2="A" operator="in"/><feMorphology operator="dilate" radius="1"/><feComposite in2="SourceAlpha" operator="in"/></filter><use xlink:href="#J" fill="#fff" filter="url(#G)" href="#A"/><g fill="#c9c9c9"><use xlink:href="#B"/><use xlink:href="#C"/><use xlink:href="#D"/><use xlink:href="#E"/></g></svg>